Coordinates
version=1
nRows=7
nColumns=33
inDegrees=yes

Units are S.I. units (second, meters, Newtons, ...)
Angles are in degrees.

endheader
time	ground_thorax_rot_x	ground_thorax_rot_y	ground_thorax_rot_z	ground_thorax_tx	ground_thorax_ty	ground_thorax_tz	clav_prot_r	clav_elev_r	scapula_abduction_r	scapula_elevation_r	scapula_upward_rot_r	scapula_winging_r	shoulder_elv_r	plane_of_elev_r	axial_rot_r	elbow_flexion_r	pro_sup_r	wrist_flex_r	wrist_dev_r	clav_prot_l	clav_elev_l	scapula_abduction_l	scapula_elevation_l	scapula_upward_rot_l	scapula_winging_l	shoulder_elv_l	plane_of_elev_l	axial_rot_l	elbow_flexion_l	pro_sup_l	wrist_flex_l	wrist_dev_l
      3.56000000	    -28.85969564	    -28.30579800	     39.22053930	    -69.68092593	    767.55804947	     11.24739066	      8.75187488	    -45.00000000	     39.82248238	    -45.00000000	    -45.00000000	  -4050.96048485	  -3713.48943231	    148.21605921	    179.99999979	   1440.47877985	     51.17583369	     19.87498049	     17.47159578	     15.78960262	     38.13702295	    -33.04184732	    -45.00000000	    -45.00000000	    793.19916125	  -1179.09326730	    135.56320216	   -179.99999979	   -352.62577931	     47.51663796	      8.98169420	    -21.33487479
      3.57000000	    -28.45785209	    -28.75885537	     39.66836993	    -69.80387958	    767.61091486	     11.12376756	      9.17362301	    -45.00000000	     40.36612552	    -45.00000000	    -45.00000000	  -4050.99024494	  -3713.45339494	    148.46935012	    179.99999979	   1440.38482897	     50.71623962	     20.12026154	     17.13102225	     15.33115016	     37.83137357	    -32.39102402	    -45.00000000	    -45.00000000	    793.26101473	  -1178.93360778	    135.43696997	   -179.99999979	   -352.80290465	     46.76744202	      9.37703006	    -21.25611617
      3.58000000	    -28.54518206	    -28.69424701	     39.55810799	    -69.95200084	    767.72200573	     10.99240814	      9.22447417	    -45.00000000	     40.37996996	    -45.00000000	    -45.00000000	  -4051.10001890	  -3713.56706546	    148.36475498	    179.99999979	   1440.51152546	     50.60678902	     19.89080249	     17.49095232	     15.37289710	     37.97363213	    -32.69842380	    -45.00000000	    -45.00000000	    793.49539918	  -1179.01244325	    135.43756444	   -179.99999979	   -352.72742186	     45.77235453	      9.66550212	    -21.26491539
      3.59000000	    -28.41013138	    -28.82112933	     39.76339766	    -70.16103044	    767.88138740	     10.85134520	      9.14818887	    -45.00000000	     40.28893208	    -45.00000000	    -45.00000000	  -4051.07249856	  -3713.43747365	    148.50429082	    179.99999979	   1440.42108415	     50.35712901	     20.20799910	     17.11687751	     15.47935318	     37.80655846	    -32.54991899	    -45.00000000	    -45.00000000	    793.68360282	  -1178.88817523	    135.23482872	   -179.99999979	   -352.71325527	     44.45093676	     10.09753898	    -21.09436300
      3.60000000	    -28.51480276	    -28.65034843	     39.53322780	    -70.55219899	    768.01141965	     10.73929822	      9.21989920	    -45.00000000	     40.42658414	    -45.00000000	    -45.00000000	  -4051.37922459	  -3713.50076226	    148.20108121	    179.99999979	   1440.62780921	     50.38404389	     19.83968319	     17.65115610	     15.25606943	     37.82963787	    -32.95297655	    -45.00000000	    -45.00000000	    793.80607263	  -1179.10253120	    135.32620985	   -179.99999979	   -352.79848475	     42.98070022	     10.35610628	    -21.06038804
      3.61000000	    -28.45578376	    -28.77788018	     39.71325671	    -71.03660963	    768.15566312	     10.62446128	      9.13699871	    -45.00000000	     40.36458095	    -45.00000000	    -45.00000000	  -4051.11514164	  -3713.38654386	    148.46558747	    179.99999979	   1440.42238146	     50.17293688	     20.22084998	     17.21036914	     15.45811570	     37.78959580	    -32.75456441	    -45.00000000	    -45.00000000	    793.89016906	  -1178.84629232	    135.19443433	   -179.99999979	   -353.02280744	     41.38340986	     10.79744272	    -20.77969038
      3.62000000	    -28.58430474	    -28.54514949	     39.44113715	    -71.67795273	    768.28714897	     10.53053798	      9.18527744	    -45.00000000	     40.50077362	    -45.00000000	    -45.00000000	  -4051.52077269	  -3713.45566505	    148.05205305	    179.99999979	   1440.63852667	     50.20602134	     19.95849367	     17.70576718	     15.23938430	     37.62607531	    -33.15646596	    -45.00000000	    -45.00000000	    794.19253194	  -1179.08448844	    135.10424554	   -179.99999979	   -353.00221604	     39.92838005	     11.00702442	    -20.73766640
